<?xml version="1.0" encoding="UTF-8"?>
<svg width="140px" height="40px" viewBox="0 0 140 40" version="1.1" xmlns="http://www.w3.org/2000/svg" xmlns:xlink="http://www.w3.org/1999/xlink">
    <title>中国太平（金色）@2x</title>
    <g id="页面-1" stroke="none" stroke-width="1" fill="none" fill-rule="evenodd">
        <g id="中国太平（金色）" fill="#FFFFFF" fill-rule="nonzero">
            <polygon id="路径" points="89.92 16.98 88.97 16.98 88.5 15.47 86.58 15.47 86.96 16.98 84.7 16.98 84.7 14.27 89.54 14.27 89.54 12.22 84.7 12.22 84.7 10.22 89.59 10.22 89.59 8.17 77.5 8.17 77.5 10.22 82.1 10.22 82.1 12.22 77.52 12.22 77.52 14.27 82.1 14.27 82.1 16.98 77.5 16.98 77.5 19.03 89.92 19.03"></polygon>
            <path d="M73.5,4.93 L73.5,22.27 L90.59,22.27 C91.4867649,22.3806997 92.3966962,22.2423071 93.22,21.87 C93.4805003,21.6428723 93.6741154,21.3489922 93.78,21.02 C93.8725083,20.6949216 93.9163177,20.3579258 93.91,20.02 L93.91,4.93 L73.5,4.93 Z M91.33,19.53 L91.33,19.53 C91.3401439,19.7298009 91.2678444,19.9250096 91.13,20.07 C91.05,20.17 90.85,20.22 90.54,20.22 L76.09,20.22 L76.09,7 L91.33,7 L91.33,19.53 Z" id="形状"></path>
            <path d="M137.27,13 L135.43,8 L132.08,8 L134.54,14.15 C134.912706,14.8466343 135.483366,15.417294 136.18,15.79 L130.9,15.79 L130.9,7.28 L139.56,7.28 L139.56,5 L119.28,5 L119.28,7.27 L127.94,7.27 L127.94,15.81 L122.68,15.81 C123.330348,15.4226775 123.852092,14.8522377 124.18,14.17 L126.65,8 L123.3,8.06 L121.47,13.06 C120.964264,14.2020916 120.128433,15.1667798 119.07,15.83 L118.94,15.83 L118.94,18.17 L127.94,18.17 L127.94,22.17 L130.94,22.17 L130.94,18.17 L139.94,18.17 L139.94,15.82 L139.62,15.82 C138.580069,15.1274505 137.763668,14.1477691 137.27,13 Z" id="路径"></path>
            <path d="M50.55,6.79 L59.48,6.79 L59.48,4.67 L62.48,4.67 L62.48,6.79 L71.48,6.79 L71.48,17.66 C71.4842618,17.9521838 71.4263123,18.241931 71.31,18.51 C71.1713811,18.7926634 70.9610502,19.0340268 70.7,19.21 C70.338209,19.435461 69.9156319,19.5437245 69.49,19.52 L62.49,19.52 L62.49,22.52 L59.49,22.52 L59.49,19.52 L50.55,19.52 L50.55,6.79 Z M53.13,17.24 L59.48,17.24 L59.48,9.08 L53.13,9.08 L53.13,17.24 L53.13,17.24 Z M62.48,17.24 L68,17.24 C68.2650903,17.2680665 68.5330103,17.2302829 68.78,17.13 C68.87,17.06 68.92,16.89 68.92,16.64 L68.92,9.08 L62.48,9.08 L62.48,17.24 Z" id="形状"></path>
            <path d="M108.08,4.88 L105.08,4.88 L105.08,7.41 L96.16,7.41 L96.16,9.8 L104.53,9.8 L98.6,18.45 C98.3404603,18.7752851 98.0452851,19.0704603 97.72,19.33 C97.3740729,19.6155853 96.9610806,19.808315 96.52,19.89 C96.4067472,19.896044 96.2932528,19.896044 96.18,19.89 L96.18,22.26 L96.72,22.26 C96.9942463,22.2554845 97.2680174,22.2354525 97.54,22.2 C98.1956755,22.0337922 98.8180169,21.7564444 99.38,21.38 C99.95203,20.9007392 100.480739,20.37203 100.96,19.8 L103.96,15.7 L103.96,17.53 C104.350204,17.4886095 104.744312,17.5542942 105.1,17.72 C105.35,17.78 105.54,18.03 105.92,18.48 L108.2,21.7 L111.2,21.76 L108,17.25 C106.74,15.61 106.48,15.42 105.6,15.36 L104.21,15.36 L106.74,11.83 L112.3,19.34 C112.55,19.65 113.12,20.47 113.75,21.16 C114.358809,21.7690458 115.147916,22.1653529 116,22.29 C116.332803,22.3165815 116.667197,22.3165815 117,22.29 L117,20 C116.769485,19.9992413 116.541532,19.9516093 116.33,19.86 C115.7,19.61 114.94,18.54 114.5,18.04 L108.5,9.84 L117,9.84 L117,7.41 L108,7.41 L108.08,4.88 Z" id="路径"></path>
            <path d="M54.75,28.58 C54.163672,28.5252401 53.5868169,28.7559822 53.2,29.2 C52.8256954,29.8184313 52.6576063,30.5398138 52.72,31.26 C52.6606584,31.8734593 52.8161831,32.4884888 53.16,33 C53.5902879,33.3936985 54.1709909,33.5799618 54.75,33.51 L57.63,33.51 L57.63,34.83 L54.63,34.83 C54.1156035,34.8481107 53.6010849,34.7976677 53.1,34.68 C52.7392201,34.5702504 52.400679,34.3975944 52.1,34.17 C51.6642651,33.8763689 51.3181855,33.467995 51.1,32.99 C50.8661558,32.4229399 50.7537399,31.8131687 50.77,31.2 C50.6771193,30.1050945 51.0387522,29.020196 51.77,28.2 C52.590196,27.4687522 53.6750945,27.1071193 54.77,27.2 L57.68,27.2 L57.68,28.48 L54.75,28.58 Z" id="路径"></path>
            <polygon id="路径" points="60.64 27.3 60.64 30.35 63.85 30.35 63.85 27.3 65.59 27.3 65.59 34.84 63.85 34.84 63.85 31.68 60.64 31.68 60.64 34.84 58.9 34.84 58.9 27.3"></polygon>
            <rect id="矩形" x="67.3" y="27.3" width="1.83" height="7.54"></rect>
            <polygon id="路径" points="70.86 27.3 73.07 27.3 76.47 32.71 76.39 27.3 78.17 27.3 78.17 34.84 76.15 34.84 72.58 29.13 72.66 34.84 70.86 34.84"></polygon>
            <path d="M82.21,27.3 L84.08,27.3 L87.62,34.84 L85.69,34.84 L84.91,33 L81.3,33 L80.56,34.79 L78.7,34.79 L82.21,27.25 L82.21,27.3 Z M83.08,28.79 L83.08,28.79 L81.87,31.7 L84.35,31.7 L83.08,28.79 Z" id="形状"></path>
            <polygon id="路径" points="94.47 28.61 91.8 28.61 91.8 27.3 99.01 27.3 99.01 28.61 96.29 28.61 96.29 34.84 94.48 34.84"></polygon>
            <path d="M101.65,27.3 L103.52,27.3 L107.06,34.84 L105.13,34.84 L104.36,33 L100.75,33 L100,34.84 L98.15,34.84 L101.65,27.3 L101.65,27.3 Z M102.52,28.79 L102.52,28.79 L101.31,31.7 L103.78,31.7 L102.52,28.79 Z" id="形状"></path>
            <rect id="矩形" x="107.93" y="27.3" width="1.83" height="7.54"></rect>
            <path d="M111.49,27.3 L115.29,27.3 C115.801808,27.2941284 116.313311,27.3275599 116.82,27.4 C117.13446,27.4381594 117.439393,27.5330276 117.72,27.68 C117.898465,27.7865356 118.065948,27.910473 118.22,28.05 C118.360064,28.1990011 118.47794,28.367396 118.57,28.55 C118.773531,28.9236062 118.873644,29.3447703 118.86,29.77 C118.869509,30.1656417 118.790948,30.5584496 118.63,30.92 C118.460989,31.2428982 118.213373,31.5180272 117.91,31.72 C117.603773,31.9069299 117.264149,32.0325908 116.91,32.09 C116.38472,32.1772802 115.852295,32.2141146 115.32,32.2 L113.19,32.2 L113.19,34.84 L111.45,34.84 L111.45,27.3 L111.49,27.3 Z M115.26,28.65 L113.26,28.65 L113.26,30.87 L115.39,30.87 C115.631448,30.8755532 115.872802,30.8554404 116.11,30.81 C116.281865,30.7710596 116.444758,30.6997939 116.59,30.6 C116.842142,30.3964821 116.980043,30.0834087 116.96,29.76 C116.986761,29.4297381 116.848195,29.1076645 116.59,28.9 C116.179643,28.6913493 115.718111,28.6045952 115.26,28.65 L115.26,28.65 Z" id="形状"></path>
            <rect id="矩形" x="120.08" y="27.3" width="1.82" height="7.54"></rect>
            <polygon id="路径" points="123.64 27.3 125.84 27.3 129.25 32.71 129.16 27.3 130.94 27.3 130.94 34.84 128.93 34.84 125.35 29.13 125.43 34.84 123.64 34.84"></polygon>
            <path d="M135.63,31.7 L135.63,30.36 L139.76,30.36 L139.76,34.84 L136,34.84 C135.475798,34.8547096 134.951795,34.8043247 134.44,34.69 C134.051665,34.5879597 133.685521,34.4150585 133.36,34.18 C132.923914,33.8867614 132.577741,33.4782772 132.36,33 C132.127007,32.4326894 132.014624,31.8230994 132.03,31.21 C131.937119,30.1150945 132.298752,29.030196 133.03,28.21 C133.837822,27.4917606 134.901942,27.1310419 135.98,27.21 L139.72,27.21 L139.72,28.49 L136,28.49 C135.433287,28.4417844 134.877126,28.6642488 134.5,29.09 C134.131616,29.6665449 133.96296,30.3481957 134.02,31.03 C133.967236,31.6643071 134.136949,32.2971962 134.5,32.82 C134.89076,33.2221058 135.44133,33.4276521 136,33.38 L138,33.38 L138,31.7 L135.63,31.7 Z" id="路径"></path>
            <path d="M21.72,0 C31.7013695,0.469263851 39.7633638,8.31265158 40.5067703,18.2773539 C41.2501769,28.2420562 34.4412464,37.1948742 24.64,39.14 C24.42,34.85 24.08,29.9 23.85,25.68 C27.26114,27.0362712 30.8526366,27.8852929 34.51,28.2 C35.29,28.26 36.3,28.03 36.58,27.53 C37.03,26.53 35.91,25.9 35.18,25.74 C31.9314264,24.9786515 28.7735016,23.8723721 25.76,22.44 C25.09,21.99 23.85,21.26 23.68,20.82 C23.5013896,19.7867447 23.4276816,18.738081 23.46,17.69 C25.9636818,19.2386898 28.8195499,20.1264175 31.76,20.27 C32.65,20.32 34.62,20.32 34.76,19.65 C34.7697041,19.383367 34.6311657,19.1332282 34.4,19 C31.4027135,17.9044426 28.4798747,16.6150531 25.65,15.14 C23.47,13.96 22.12,12.51 20.78,12.51 C19.44,12.51 18.09,13.97 15.9,15.14 C13.0829411,16.6060215 10.1773175,17.8951832 7.2,19 C6.98,19.11 6.7,19.34 6.81,19.67 C6.92,20.34 8.88,20.34 9.81,20.29 C12.7502967,20.1455511 15.6059534,19.2578892 18.11,17.71 C18.1420456,18.7580756 18.0683396,19.8067119 17.89,20.84 C17.72,21.29 16.55,22.02 15.82,22.47 C12.8063822,23.9020896 9.64848807,25.0083582 6.4,25.77 C5.67,25.94 4.55,26.61 5,27.56 C5.28,28.06 6.35,28.29 7.08,28.23 C10.7339716,27.914329 14.3220307,27.0653235 17.73,25.71 C17.51,29.94 17.17,34.88 16.95,39.17 C7.09399339,37.2849151 0.213517972,28.3151292 0.946795476,18.3072965 C1.68007298,8.29946377 9.79448654,0.428358757 19.82,0 C19.47,0.61 19.36,2 19.2,2.21 C18.81,2.94 16.34,4.12 15.33,4.51 C14.15,5.01 12.92,5.35 11.8,5.85 C11.24,6.13 10.73,6.85 11.41,7.25 C12.64,7.92 14.89,7.36 16.23,7.02 L17.91,6.52 C16.4338056,7.70096806 14.8578915,8.75157746 13.2,9.66 C11.97,10.33 10.9,10.83 9.67,11.51 C9.34538673,11.6108884 9.09425408,11.8697699 9.00327397,12.1972983 C8.91229385,12.5248267 8.99392705,12.8761432 9.22,13.13 C9.45196361,13.3307287 9.75399188,13.4314048 10.06,13.41 L10.06,13.41 C11.96,13.3 13.98,12.23 15.78,11.34 C17.5154531,10.4768866 19.1517634,9.4273679 20.66,8.21 C20.6865452,8.17628302 20.7270875,8.15660254 20.77,8.15660254 C20.8129125,8.15660254 20.8534548,8.17628302 20.88,8.21 C22.3874418,9.42846972 24.0238769,10.4780684 25.76,11.34 C27.55,12.23 29.57,13.34 31.47,13.41 C31.7760081,13.4314048 32.0780364,13.3307287 32.31,13.13 C32.5121958,12.8680768 32.5790986,12.526167 32.4905384,12.2073504 C32.4019783,11.8885339 32.1683172,11.6301141 31.86,11.51 C30.63,10.83 29.56,10.33 28.33,9.66 C26.68091,8.74087434 25.1061218,7.69435906 23.62,6.53 L25.3,7.03 C26.65,7.37 28.89,7.93 30.12,7.26 C30.79,6.87 30.29,6.14 29.73,5.86 C28.61,5.36 27.37,5.02 26.2,4.52 C25.2,4.13 22.72,2.95 22.33,2.22 C22.18,2 22.07,0.61 21.72,0 Z M20.72,10 L20.72,10 C19.8574735,9.90974288 18.9892645,10.1065838 18.25,10.56 C17.86,10.84 18.31,11.34 19.09,11.56 C19.6256736,11.6715661 20.1741936,11.7085828 20.72,11.67 C21.2624889,11.70817 21.8076503,11.6711529 22.34,11.56 C23.13,11.39 23.58,10.88 23.18,10.56 C22.4560366,10.1233291 21.612328,9.9272806 20.77,10 L20.72,10 Z M16.06,20.64 L16.06,20.64 C16.23,19.97 15.5,19.64 14.83,20.03 C13.1931489,20.8293491 11.4306111,21.3401806 9.62,21.54 C9.21644915,21.5356003 8.86543892,21.8155728 8.78,22.21 C8.67,22.77 9.45,23 9.85,23 C12.04,22.89 15.68,22.16 16.07,20.65 L16.06,20.64 Z M31.93,21.54 L31.93,21.54 C30.1176443,21.3303455 28.3550913,20.8093606 26.72,20 C26.05,19.66 25.32,19.94 25.49,20.61 C25.88,22.12 29.49,22.85 31.71,22.96 C32.1,22.96 32.88,22.74 32.77,22.17 C32.672557,21.787511 32.3246335,21.5224264 31.93,21.53 L31.93,21.54 Z" id="形状"></path>
        </g>
    </g>
</svg>